<svg width="920" height="400" xmlns="http://www.w3.org/2000/svg" viewBox="0 0 230 100">
	<defs>
		<style>
			:root {
				--roof: #2E3841;
				--red_roof: #A03B4B;
				--wall: #E2C19E;
				--wall_border: #BFA78B;
				--white: #ffffff;
				--ball: #7A7C7C;
				--light-gray: #bbbbbb;
				--light-light-gray: #dddddd;
			}
		</style>
	</defs>
	<g transform="translate(20 90)">
		<g>
			<path fill="var(--light-gray)" stroke="black" stroke-width="0.1" d="M 7.2 -4 L 34.2 -19 l 6 0 L 67.2 -4 z"/>
			<path fill="var(--light-light-gray)" d="M 34.2 -19 l 6 0 l 0 14.9 l -6 0 z"/>
			<g stroke="var(--white)" stroke-width="0.5">
				<path d="M 37.2 -8 m 4.5 0 l 0 -6"/>
				<path d="M 37.2 -8 m 5.4 0 l 0 -5.5"/>
				<path d="M 37.2 -8 m 6.3 0 l 0 -5"/>
				<path d="M 37.2 -8 m 7.2 0 l 0 -4.5"/>
				<path d="M 37.2 -8 m 8.1 0 l 0 -4"/>
				<path d="M 37.2 -8 m 9.0 0 l 0 -3.5"/>
				<path d="M 37.2 -8 m 9.9 0 l 0 -3"/>
				<path d="M 37.2 -8 m 10.8 0 l 0 -2.5"/>
				<path d="M 37.2 -8 m 11.7 0 l 0 -2"/>
				<path d="M 37.2 -8 m 12.6 0 l 0 -1.5"/>
				<path d="M 37.2 -8 m 13.5 0 l 0 -1"/>
				<path d="M 37.2 -8 m 14.4 0 l 0 -0.5"/>
				<!---->
				<path d="M 37.2 -8 m -4.5 0 l 0 -6"/>
				<path d="M 37.2 -8 m -5.4 0 l 0 -5.5"/>
				<path d="M 37.2 -8 m -6.3 0 l 0 -5"/>
				<path d="M 37.2 -8 m -7.2 0 l 0 -4.5"/>
				<path d="M 37.2 -8 m -8.1 0 l 0 -4"/>
				<path d="M 37.2 -8 m -9.0 0 l 0 -3.5"/>
				<path d="M 37.2 -8 m -9.9 0 l 0 -3"/>
				<path d="M 37.2 -8 m -10.8 0 l 0 -2.5"/>
				<path d="M 37.2 -8 m -11.7 0 l 0 -2"/>
				<path d="M 37.2 -8 m -12.6 0 l 0 -1.5"/>
				<path d="M 37.2 -8 m -13.5 0 l 0 -1"/>
				<path d="M 37.2 -8 m -14.4 0 l 0 -0.5"/>
			</g>
			<g stroke="gray" stroke-width="0.05">
				<path d="M 37.2 -16 m -7.5 0 l 15 0"/>
				<path d="M 37.2 -13.5 m -12 0 l 24 0"/>
				<path d="M 37.2 -11 m -16.5 0 l 33 0"/>
				<path d="M 37.2 -8.5 m -21 0 l 42 0"/>
				<path d="M 37.2 -6 m -25.5 0 l 51 0"/>
			</g>
		</g>
		<g fill="var(--wall)" stroke="var(--wall_border)" stroke-width="0.3">
			<!--wall-->
			<path d="M 0 0 l 0 -16 l -18 -10 l 0 16 z"/>
			<path d="M 0 0 l 0 -16 l 18 -10 l 7.5 -10 l 7.2 -4 l 4.5 -6 L 37.2 -19 l -3 0 z"/>
			<path d="M 74.4 0 l 0 -16 l -18 -10 l -7.5 -10 l -7.2 -4 l -4.5 -6 L 37.2 -19 l 3 0 z"/>
			<path d="M 74.4 0 l 0 -16 l 18 -10 l 0 16 z"/>
			<path d="M 110.4 0 l 0 -16 l -18 -10 l 0 16 z"/>
			<path d="M 110.4 0 l 0 -16 l 18 -10 l 0 16 z"/>
			<path d="M 146.4 0 l 0 -16 l 18 -10 l 0 16 z"/>
			<path d="M 146.4 0 l 0 -16 l -18 -10 l 0 16 z"/>
			<path d="M 74.4 -36 l 0 -9 l 18 -10 l 0 9 z"/>
			<path d="M 110.4 -36 l 0 -9 l 18 -10 l 0 9 z"/>
			<path d="M 110.4 -36 l 0 -9 l -18 -10 l 0 9 z"/>
			<path d="M 146.4 -36 l 0 -9 l 18 -10 l 0 9 z"/>
			<path d="M 146.4 -36 l 0 -9 l -18 -10 l 0 9 z"/>
			<path d="M 74.4 -36 l 0 -9 l -18 -10 l 0 9 z"/>
			<path d="M 164.4 -26 l 14.4 8 l 0 7 l -14.4 -8 z"/>
			<path d="M 178.8 -2 l 0 -16 l 9 5 l 0 9 l 5.4 3 l 0 7 z"/>
			<path d="M 193.2 6 l 0 -7 l 5.4 -3 l 0 -9 l 9 -5 l 0 16 z"/>
			<path d="M 193.2 -1 l 5.4 -3 l 0 -9 l -10.8 0 l 0 9 z"/>
			<path d="M 169.8 -29 l -12.6 -7 l 12.6 -7 z"/>
			<path d="M 74.4 0 m 12.6 -7 l 0 -8 a 6 3 0 0 1 10.8 0 l 0 8 z"/>
			<path d="M 110.4 0 m 12.6 -7 l 0 -8 a 6 3 0 0 1 10.8 0 l 0 8 z"/>
			<path d="M 0 -36 l 0 -9 l 18 -10 l 0 9 z"/>
			<path d="M 0 -36 l 0 -9 l -18 -10 l 0 29 z"/>
		</g>
		<g fill="none" stroke="var(--white)">
			<!--white lines-->
			<g stroke-width="1">
				<path d="M 3.6 -17 l 21.6 -12 l 12 -16 l 12 16 l 21.6 12 "/>
				<path d="M 0 -15 m 18 -10 l 7.5 -10 l 7.2 -4"/>
				<path d="M 74.4 -15 m -18 -10 l -7.5 -10 l -7.2 -4"/>
				<path d="M 74.4 -44.7 l -25.2 -14 l 108 0 l 7.2 4 l -18 10 l -18 -10 l -18 10 l -18 -10 z"/>
				<path d="M 0 -44.7 l -18 -10 l 7.2 -4 l 36 0 z"/>
			</g>
		</g>
		<g fill="var(--white)">
			<!--white lines 2-->
				<path d="M 2.7 -1.7 l 0 -15.35 l 1.8 -1 l 0 15.35 z"/>
				<path d="M 71.7 -1.7 l 0 -15.35 l -1.8 -1 l 0 15.35 z"/>
				<path d="M -2.7 -1.7 l 0 -14.5 l -12.6 -7 l 0 14.5 l 1.8 1 l 0 -13 l 9 5 l 0 13 z"/>
				<path d="M 74.4 0 m 2.7 -1.7 l 0 -14.5 l 15.12 -8.4 l 0 1.5 l -13.32 7.4 l 0 13 z"/>
				<path d="M 110.4 0 m -2.7 -1.7 l 0 -14.5 l -15.12 -8.4 l 0 1.5 l 13.32 7.4 l 0 13 z"/>
				<path d="M 110.4 0 m 2.7 -1.7 l 0 -14.5 l 15.12 -8.4 l 0 1.5 l -13.32 7.4 l 0 13 z"/>
				<path d="M 146.4 0 m -2.7 -1.7 l 0 -14.5 l -15.12 -8.4 l 0 1.5 l 13.32 7.4 l 0 13 z"/>
				<path d="M 146.4 0 m 2.7 -1.7 l 0 -14.5 l 15.12 -8.4 l 0 1.5 l -13.32 7.4 l 0 13 z"/>
				<path d="M 164.4 -24.5 m 0.15 0 l 14.1 8 l 0 1.5 l -14.1 -8 z"/>
				<path d="M 178.8 -2 m 0.17 -0.17 l 0 -14.2 l 8.6 5 l 0 14 l -1.8 -1 l 0 -12 l -5.4 -3 l 0 12 z"/>
				<path d="M 207.6 -2 m -0.17 -0.17 l 0 -14.2 l -8.6 5 l 0 14 l 1.8 -1 l 0 -12 l 5.4 -3 l 0 12 z"/>
		</g>
		<g fill="var(--roof)" stroke="black" stroke-width="0.2">
			<!--roof-->
			<path d="M 0 -16 l 18 -10 l -18 -10 l -18 10 z"/>
			<path d="M 0 -16 m 18 -10 m 7.5 -10 l 7.2 -4 l -18 -10 l -7.2 4 z"/>
			<path d="M 37.2 -66.4 l -7.2 -4 l 7.2 -4 l 7.2 4 z"/>
			<path d="M 41.7 -40 l 18 -10 l 7.2 4 l -18 10 z"/>
			<path d="M 74.4 -16 l -18 -10 l 36 -20 l 18 10 l 18 -10 l 18 10 l 18 -10 l 5.4 3 l -12.6 7 l 12.6 7 l -5.4 3 l -18 10 l -18 -10 l -18 10 l -18 -10 z"/>
			<path d="M 74.4 -45 l -25.2 -14 l 108 0 l 7.2 4 l -18 10 l -18 -10 l -18 10 l -18 -10 z"/>
			<path d="M 164.4 -26 l 14.4 8 l 5.4 -3 l -14.4 -8 z"/>
			<path d="M 0 -45 l -18 -10 l 7.2 -4 l 36 0 z"/>
			<path d="M 0 -36 l -10.8 -6 l -7.2 4 l 10.8 6 z"/>
		</g>
		<g fill="var(--red_roof)" stroke="black" stroke-width="0.2">
			<!--red roof-->
			<path d="M 0 -16 m 18 -10 l 7.5 -10 l -18 -10 l -7.5 10 z"/>
			<path d="M 32.7 -40 l -18 -10 l 15.3 -20.4 l 7.2 4 l 0 20.4 z"/>
			<path d="M 32.7 -40 m 9 0 l 18 -10 l -15.3 -20.4 l -7.2 4 l 0 20.4 z"/>
			<path d="M 74.4 -16 m -18 -10 l 18 -10 l -7.5 -10 l -18 10 z"/>
			<path d="M 178.8 -18 l 10.8 -7.8 l 3.6 2 l 0 6.9 l -5.4 3.9 z"/>
			<path d="M 207.6 -18 l -10.8 -7.8 l -3.6 2 l 0 6.9 l 5.4 3.9 z"/>
			<path d="M 187.8 -13 l 5.4 -3.9 l 5.4 3.9 z"/>
			<path d="M 187.8 -4 l 5.4 -3 l 0 6 z"/>
			<path d="M 198.6 -4 l -5.4 -3 l 0 6 z"/>
			<path d="M 193.2 -23.8 l -3.6 -2 l 0 -3 l 3.6 2 z"/>
			<path d="M 193.2 -23.8 l 3.6 -2 l 0 -3 l -3.6 2 z"/>
			<path d="M 193.2 -26.8 l 0 -4 l 3.6 2 z"/>
			<path d="M 193.2 -26.8 l 0 -4 l -3.6 2 z"/>
			<path d="M 74.4 -45 l -5.4 -3 l 5.4 -3 z"/>
			<path d="M 74.4 -45 l 5.4 -3 l -5.4 -3 z"/>
			<path d="M 110.4 -45 l -5.4 -3 l 5.4 -3 z"/>
			<path d="M 110.4 -45 l 5.4 -3 l -5.4 -3 z"/>
			<path d="M 146.4 -45 l -5.4 -3 l 5.4 -3 z"/>
			<path d="M 146.4 -45 l 5.4 -3 l -5.4 -3 z"/>
			<path d="M 0 -45 l -5.4 -3 l 5.4 -3 z"/>
			<path d="M 0 -45 l 5.4 -3 l -5.4 -3 z"/>
		</g>
		<g stroke="black" stroke-width="0.3" fill="var(--ball)">
			<circle cx="37.2" cy="-74" r="3" />
			<path d="M 37.2 -76 l -0.7 -2 l 0.7 -2 l 0.7 2 z"/>
		</g>
		<g fill="gray" stroke="black" stroke-width="0.05">
			<!--window-->
			<path d="M 34.2 -19 l 6 0 l 0 -13 l -6 0 z"/>
			<path d="M 34.2 -32 l 3 -3 l 3 3 z"/>
			<path d="M 34.2 -19 l 0 -9 l -2.34 1.3 l 0 9 z"/>
			<path d="M 40.2 -19 l 0 -9 l 2.34 1.3 l 0 9 z"/>
			<path d="M 0 -2 l 0 -9 l 2.7 -1.5 l 0 9 z"/>
			<path d="M 0 -2 l 0 -9 l -2.7 -1.5 l 0 9 z"/>
			<path d="M -18 -12 l 0 -9 l 2.7 1.5 l 0 9 z"/>
			<path d="M 74.4 -2 l 0 -9 l 2.7 -1.5 l 0 9 z"/>
			<path d="M 74.4 -2 l 0 -9 l -2.7 -1.5 l 0 9 z"/>
			<path d="M 110.4 -2 l 0 -9 l 2.7 -1.5 l 0 9 z"/>
			<path d="M 110.4 -2 l 0 -9 l -2.7 -1.5 l 0 9 z"/>
			<path d="M 146.4 -2 l 0 -9 l 2.7 -1.5 l 0 9 z"/>
			<path d="M 146.4 -2 l 0 -9 l -2.7 -1.5 l 0 9 z"/>
			<path d="M 75.0 -44.5 l 3.6 -2 l 0 2 l -1.8 1 l 0 2 l -1.8 1 z"/>
			<path d="M 73.8 -44.5 l -3.6 -2 l 0 2 l 1.8 1 l 0 2 l 1.8 1 z"/>
			<path d="M 111.0 -44.5 l 3.6 -2 l 0 2 l -1.8 1 l 0 2 l -1.8 1 z"/>
			<path d="M 109.8 -44.5 l -3.6 -2 l 0 2 l 1.8 1 l 0 2 l 1.8 1 z"/>
			<path d="M 147.0 -44.5 l 3.6 -2 l 0 2 l -1.8 1 l 0 2 l -1.8 1 z"/>
			<path d="M 145.8 -44.5 l -3.6 -2 l 0 2 l 1.8 1 l 0 2 l 1.8 1 z"/>
			<path d="M 0.4 -44.5 l 3.6 -2 l 0 2 l -1.8 1 l 0 2 l -1.8 1 z"/>
			<path d="M -0.4 -44.5 l -3.6 -2 l 0 2 l 1.8 1 l 0 2 l 1.8 1 z"/>
			<path d="M 145.8 -44.5 l -3.6 -2 l 0 2 l 1.8 1 l 0 2 l 1.8 1 z"/>
			<path d="M 74.4 0 m 12.6 -7 m 3.9 0 l 0 -4 a 2 2 0 0 1 3 0 l 0 4 z"/>
			<path d="M 110.4 0 m 12.6 -7 m 3.9 0 l 0 -4 a 2 2 0 0 1 3 0 l 0 4 z"/>
			<path d="M 0 0 m 30.6 -18 l 0 -8 l -1.08 0.6 l 0 8 z"/>
			<path d="M 0 0 m 28.8 -17 l 0 -8 l -1.08 0.6 l 0 8 z"/>
			<path d="M 0 0 m 27 -16 l 0 -2.2 l -1.08 0.6 l 0 2.2 z"/>
			<path d="M 0 0 m 25.2 -15 l 0 -2.2 l -1.08 0.6 l 0 2.2 z"/>
			<path d="M 0 0 m 23.4 -14 l 0 -2.2 l -1.08 0.6 l 0 2.2 z"/>
			<path d="M 74.4 0 m -30.6 -18 l 0 -8 l 1.08 0.6 l 0 8 z"/>
			<path d="M 74.4 0 m -28.8 -17 l 0 -8 l 1.08 0.6 l 0 8 z"/>
			<path d="M 74.4 0 m -27 -16 l 0 -2.2 l 1.08 0.6 l 0 2.2 z"/>
			<path d="M 74.4 0 m -25.2 -15 l 0 -2.2 l 1.08 0.6 l 0 2.2 z"/>
			<path d="M 74.4 0 m -23.4 -14 l 0 -2.2 l 1.08 0.6 l 0 2.2 z"/>
			<path d="M 178.8 -2 m 2.16 1.2 m 0 -9 l 0 -2.2 l 1.08 0.6 l 0 2.2 z"/>
			<path d="M 178.8 -2 m 2.16 1.2 m 0 -5.7 l 0 -2.2 l 1.08 0.6 l 0 2.2 z"/>
			<path d="M 178.8 -2 m 2.16 1.2 m 0 -2.4 l 0 -2.2 l 1.08 0.6 l 0 2.2 z"/>
			<path d="M 178.8 -2 m 9 5 m -2.7 -1.5 m 0 -9 l 0 -2.2 l -1.08 -0.6 l 0 2.2 z"/>
			<path d="M 178.8 -2 m 9 5 m -2.7 -1.5 m 0 -5.7 l 0 -2.2 l -1.08 -0.6 l 0 2.2 z"/>
			<path d="M 178.8 -2 m 9 5 m -2.7 -1.5 m 0 -2.4 l 0 -2.2 l -1.08 -0.6 l 0 2.2 z"/>
			<path d="M 207.6 -2 m -2.16 1.2 m 0 -9 l 0 -2.2 l -1.08 0.6 l 0 2.2 z"/>
			<path d="M 207.6 -2 m -2.16 1.2 m 0 -5.7 l 0 -2.2 l -1.08 0.6 l 0 2.2 z"/>
			<path d="M 207.6 -2 m -2.16 1.2 m 0 -2.4 l 0 -2.2 l -1.08 0.6 l 0 2.2 z"/>
			<path d="M 207.6 -2 m -9 5 m 2.7 -1.5 m 0 -9 l 0 -2.2 l 1.08 -0.6 l 0 2.2 z"/>
			<path d="M 207.6 -2 m -9 5 m 2.7 -1.5 m 0 -5.7 l 0 -2.2 l 1.08 -0.6 l 0 2.2 z"/>
			<path d="M 207.6 -2 m -9 5 m 2.7 -1.5 m 0 -2.4 l 0 -2.2 l 1.08 -0.6 l 0 2.2 z"/>
			<path d="M 193.2 -9.5 m 2.5 0 l 0 -2.2 l 1.5 0 l 0 2.2 z"/>
			<path d="M 193.2 -9.5 m -2.5 0 l 0 -2.2 l -1.5 0 l 0 2.2 z"/>
			<path d="M 193.2 -6.4 m 2.5 0 l 0 -2.2 l 1.5 0 l 0 2.2 z"/>
			<path d="M 193.2 -6.4 m -2.5 0 l 0 -2.2 l -1.5 0 l 0 2.2 z"/>
			<path d="M 193.2 6 m 1.8 -1 l 0 -3 a 1.5 1.5 0 0 1 1.8 -1 l 0 3 z"/>
		</g>
	</g>
</svg>