<svg width="110mm" height="240mm" viewBox="0 0 110 240" xmlns="http://www.w3.org/2000/svg">
	<g transform="translate(55 120)">
		<path fill="none" stroke="black" stroke-width="6" stroke-linejoin="round" d="M -48 0 L 0 -110 L 48 0 L 0 110 Z"/>
		<path fill="black" d="m -2 6 c -6 -23 -7 -28 -11 -45 c -3 -11 -2 -19 2 -27 c 3 -6 8 -9 14 -9 c 3 0 9 2 10 6 c 1 4 -1 7 -4 7 c -3 0 -5 -2 -5 -5 c 0 -3 -1 -4 -3 -4 c -4 0 -7 4 -8 7 c -5 12 -1 20 1 28 c 2 7 2 6 8 30 c 6 23 7 28 11 45 c 3 11 2 19 -2 27 c -3 6 -8 9 -14 9 c -3 0 -9 -2 -10 -6 c -1 -4 1 -7 4 -7 c 3 0 5 2 5 5 c 0 3 1 4 3 4 c 4 0 7 -4 8 -7 c 5 -12 1 -20 -1 -28 c -2 -7 -2 -6 -8 -30 Z"/>
		<ellipse stroke="black" stroke-width="5" fill="none" cx="0" cy="0" rx="35" ry="20" transform="rotate(-30)"/>
		<path transform="scale(1.7 1.7) translate(-13, 1.5)" fill="black" d="M7.57031 0.0546875V2.20508H7.35938C7.23438 1.70898 7.0957 1.35352 6.94336 1.13867C6.79102 0.919922 6.58203 0.746094 6.31641 0.617188C6.16797 0.546875 5.9082 0.511719 5.53711 0.511719H4.94531V6.64062C4.94531 7.04688 4.9668 7.30078 5.00977 7.40234C5.05664 7.50391 5.14453 7.59375 5.27344 7.67188C5.40625 7.74609 5.58594 7.7832 5.8125 7.7832H6.07617V8H1.91602V7.7832H2.17969C2.41016 7.7832 2.5957 7.74219 2.73633 7.66016C2.83789 7.60547 2.91797 7.51172 2.97656 7.37891C3.01953 7.28516 3.04102 7.03906 3.04102 6.64062V0.511719H2.4668C1.93164 0.511719 1.54297 0.625 1.30078 0.851562C0.960938 1.16797 0.746094 1.61914 0.65625 2.20508H0.433594V0.0546875H7.57031Z"/>
		<path transform="scale(1.7 1.7) translate(2, -9)" fill="black" d="M0.503906 0.271484V0.0546875H4.125V0.271484H3.98438C3.69531 0.271484 3.50391 0.34375 3.41016 0.488281C3.31641 0.632812 3.26953 0.939453 3.26953 1.4082V6.78125C3.26953 7.11328 3.30859 7.31445 3.38672 7.38477C3.46875 7.45117 3.6875 7.48438 4.04297 7.48438H4.78125C5.24609 7.48438 5.50391 7.44727 5.55469 7.37305C5.60938 7.29492 5.63672 7.09766 5.63672 6.78125V1.4082C5.63672 0.939453 5.58984 0.632812 5.49609 0.488281C5.40234 0.34375 5.20898 0.271484 4.91602 0.271484H4.78125V0.0546875H8.40234V0.271484H8.26172C7.97266 0.271484 7.78125 0.34375 7.6875 0.488281C7.59375 0.628906 7.54688 0.935547 7.54688 1.4082V6.65234C7.54688 7.03906 7.56641 7.27539 7.60547 7.36133C7.64844 7.44336 7.88672 7.48438 8.32031 7.48438H9.25195C9.61523 7.48438 9.81641 7.4375 9.85547 7.34375C9.89453 7.24609 9.91406 7.03906 9.91406 6.72266V1.4082C9.91406 0.947266 9.86719 0.642578 9.77344 0.494141C9.67969 0.345703 9.48633 0.271484 9.19336 0.271484H9.05859V0.0546875H12.6738V0.271484H12.5391C12.2461 0.271484 12.0527 0.345703 11.959 0.494141C11.8652 0.638672 11.8184 0.943359 11.8184 1.4082V6.65234C11.8184 7.09766 11.8594 7.39844 11.9414 7.55469C12.0234 7.70703 12.2227 7.7832 12.5391 7.7832H12.6738V8H0.503906V7.7832H0.638672C0.994141 7.7832 1.20312 7.68945 1.26562 7.50195C1.32812 7.31055 1.35938 7 1.35938 6.57031V1.4082C1.35938 0.935547 1.31055 0.628906 1.21289 0.488281C1.11914 0.34375 0.927734 0.271484 0.638672 0.271484H0.503906Z"/>
	</g>
</svg>